<svg xmlns="http://www.w3.org/2000/svg" viewBox="0 0 1600 900" role="img" aria-labelledby="title desc">
  <title id="title">Real Estate Sangli Hero Illustration</title>
  <desc id="desc">Premium modern housing skyline with warm red and dark architectural accents.</desc>
  <defs>
    <linearGradient id="sky" x1="0" y1="0" x2="1" y2="1">
      <stop offset="0%" stop-color="#140f12"/>
      <stop offset="55%" stop-color="#2b1212"/>
      <stop offset="100%" stop-color="#4d1818"/>
    </linearGradient>
    <linearGradient id="glow" x1="0" y1="0" x2="1" y2="0">
      <stop offset="0%" stop-color="#f5d2c8" stop-opacity="0.95"/>
      <stop offset="100%" stop-color="#d15144" stop-opacity="0.6"/>
    </linearGradient>
    <linearGradient id="building" x1="0" y1="0" x2="0" y2="1">
      <stop offset="0%" stop-color="#f0d9d1"/>
      <stop offset="100%" stop-color="#c5aba4"/>
    </linearGradient>
  </defs>
  <rect width="1600" height="900" fill="url(#sky)"/>
  <circle cx="1230" cy="170" r="110" fill="#ffb49f" opacity="0.16"/>
  <circle cx="1280" cy="180" r="170" fill="#f1917d" opacity="0.08"/>
  <path d="M0 715C185 640 306 606 455 618c186 15 257 94 475 87 226-8 351-126 670-100v295H0Z" fill="#0f0c0c"/>
  <rect x="830" y="250" width="360" height="370" rx="18" fill="url(#building)"/>
  <rect x="895" y="310" width="90" height="150" rx="8" fill="#1f1717"/>
  <rect x="1020" y="310" width="110" height="150" rx="8" fill="#1f1717"/>
  <rect x="975" y="490" width="70" height="130" rx="10" fill="#381919"/>
  <rect x="870" y="275" width="280" height="18" rx="9" fill="#f7ebe7" opacity="0.75"/>
  <rect x="210" y="340" width="330" height="285" rx="18" fill="#ead7d1"/>
  <polygon points="170,370 375,225 580,370" fill="#c94639"/>
  <rect x="300" y="458" width="70" height="167" rx="10" fill="#291919"/>
  <rect x="240" y="420" width="40" height="56" rx="6" fill="#ffffff" opacity="0.82"/>
  <rect x="400" y="420" width="40" height="56" rx="6" fill="#ffffff" opacity="0.82"/>
  <rect x="240" y="500" width="40" height="56" rx="6" fill="#ffffff" opacity="0.82"/>
  <rect x="400" y="500" width="40" height="56" rx="6" fill="#ffffff" opacity="0.82"/>
  <rect x="1220" y="360" width="180" height="260" rx="14" fill="#e6d0ca"/>
  <polygon points="1190,390 1310,295 1430,390" fill="#9a2b24"/>
  <rect x="1276" y="460" width="54" height="160" rx="8" fill="#281717"/>
  <rect x="1244" y="425" width="24" height="38" rx="4" fill="#fff8ef" opacity="0.85"/>
  <rect x="1338" y="425" width="24" height="38" rx="4" fill="#fff8ef" opacity="0.85"/>
  <path d="M150 675h1300" stroke="url(#glow)" stroke-width="6" stroke-linecap="round" opacity="0.75"/>
  <path d="M1320 675c-30-42-54-58-96-58-60 0-96 39-135 39-48 0-71-39-124-39-59 0-93 58-162 58-63 0-108-49-187-49-72 0-113 49-178 49-47 0-80-30-125-30-38 0-63 12-113 30" fill="none" stroke="#f1b5a3" stroke-opacity="0.28" stroke-width="4"/>
  <text x="150" y="168" fill="#fff0ea" opacity="0.92" font-family="Georgia, serif" font-size="70">Real Estate Sangli</text>
  <text x="150" y="222" fill="#f5b5a8" opacity="0.86" font-family="Arial, sans-serif" font-size="28" letter-spacing="4">PREMIUM PROPERTY DEALS IN SANGLI</text>
</svg>