<svg xmlns="http://www.w3.org/2000/svg" viewBox="0 0 900 620" role="img" aria-labelledby="title desc">
  <title id="title">Modern apartment illustration</title>
  <desc id="desc">A contemporary apartment block with warm lighting.</desc>
  <defs>
    <linearGradient id="bg" x1="0" y1="0" x2="1" y2="1">
      <stop offset="0%" stop-color="#1b1515"/>
      <stop offset="100%" stop-color="#3c1717"/>
    </linearGradient>
  </defs>
  <rect width="900" height="620" fill="url(#bg)"/>
  <rect y="470" width="900" height="150" fill="#161010"/>
  <rect x="205" y="120" width="195" height="350" rx="14" fill="#e6d4cf"/>
  <rect x="420" y="90" width="280" height="380" rx="14" fill="#f1dfd8"/>
  <rect x="720" y="210" width="80" height="260" rx="14" fill="#dbc2bc"/>
  <g fill="#382020">
    <rect x="240" y="165" width="42" height="58" rx="6"/>
    <rect x="305" y="165" width="42" height="58" rx="6"/>
    <rect x="240" y="250" width="42" height="58" rx="6"/>
    <rect x="305" y="250" width="42" height="58" rx="6"/>
    <rect x="240" y="335" width="42" height="58" rx="6"/>
    <rect x="305" y="335" width="42" height="58" rx="6"/>
    <rect x="465" y="138" width="54" height="62" rx="7"/>
    <rect x="547" y="138" width="54" height="62" rx="7"/>
    <rect x="465" y="228" width="54" height="62" rx="7"/>
    <rect x="547" y="228" width="54" height="62" rx="7"/>
    <rect x="465" y="318" width="54" height="62" rx="7"/>
    <rect x="547" y="318" width="54" height="62" rx="7"/>
  </g>
  <rect x="620" y="138" width="46" height="242" rx="8" fill="#472626"/>
  <rect x="500" y="400" width="112" height="70" rx="8" fill="#472626"/>
  <circle cx="134" cy="128" r="54" fill="#f4ad9a" opacity="0.2"/>
  <circle cx="790" cy="105" r="64" fill="#f4ad9a" opacity="0.14"/>
  <path d="M0 560c125-28 223-28 336 0 133-34 241-34 358 0 76-22 145-22 206 0v60H0Z" fill="#223523"/>
</svg>