<svg xmlns="http://www.w3.org/2000/svg" viewBox="0 0 900 620" role="img" aria-labelledby="title desc">
  <title id="title">Land and plot illustration</title>
  <desc id="desc">An investment plot with roadway, fields, and skyline backdrop.</desc>
  <defs>
    <linearGradient id="sky" x1="0" y1="0" x2="1" y2="1">
      <stop offset="0%" stop-color="#201415"/>
      <stop offset="100%" stop-color="#4b1b1b"/>
    </linearGradient>
  </defs>
  <rect width="900" height="620" fill="url(#sky)"/>
  <circle cx="718" cy="124" r="78" fill="#f4b4a4" opacity="0.18"/>
  <path d="M0 420C170 360 295 345 470 370c144 20 258 74 430 58v192H0Z" fill="#1a1514"/>
  <path d="M0 430c126 40 219 40 342 0 114 42 215 42 344 0 86 32 156 32 214 0v190H0Z" fill="#274228"/>
  <path d="M422 620 520 620 590 440 350 440Z" fill="#ccc0bb"/>
  <path d="M440 620 500 620 550 470 390 470Z" fill="#4d2323"/>
  <path d="M120 520h240M520 520h220" stroke="#d4dcbc" stroke-opacity="0.42" stroke-width="4" stroke-linecap="round"/>
  <path d="M155 560h176M560 560h168" stroke="#d4dcbc" stroke-opacity="0.28" stroke-width="4" stroke-linecap="round"/>
  <rect x="118" y="280" width="18" height="130" rx="8" fill="#f0d7cc"/>
  <rect x="740" y="300" width="18" height="130" rx="8" fill="#f0d7cc"/>
  <path d="M136 290h124M758 312h92" stroke="#f0d7cc" stroke-width="8" stroke-linecap="round"/>
  <text x="150" y="110" fill="#fff3ef" font-family="Georgia, serif" font-size="52">Investment Plot</text>
  <text x="150" y="154" fill="#f3baaa" font-family="Arial, sans-serif" font-size="24" letter-spacing="3">LAND AND FIELD OPPORTUNITIES IN SANGLI</text>
</svg>