<svg xmlns="http://www.w3.org/2000/svg" viewBox="0 0 900 620" role="img" aria-labelledby="title desc">
  <title id="title">Luxury villa illustration</title>
  <desc id="desc">A premium independent villa with landscaped foreground.</desc>
  <defs>
    <linearGradient id="bg" x1="0" y1="0" x2="1" y2="1">
      <stop offset="0%" stop-color="#231414"/>
      <stop offset="100%" stop-color="#4d1717"/>
    </linearGradient>
  </defs>
  <rect width="900" height="620" fill="url(#bg)"/>
  <rect y="430" width="900" height="190" fill="#161111"/>
  <rect x="205" y="220" width="500" height="230" rx="18" fill="#ead8d2"/>
  <polygon points="170,255 455,90 740,255" fill="#b63429"/>
  <rect x="415" y="310" width="90" height="140" rx="10" fill="#2a1919"/>
  <rect x="255" y="280" width="84" height="78" rx="10" fill="#fff6f0"/>
  <rect x="575" y="280" width="84" height="78" rx="10" fill="#fff6f0"/>
  <rect x="255" y="372" width="84" height="54" rx="8" fill="#fff6f0" opacity="0.82"/>
  <rect x="575" y="372" width="84" height="54" rx="8" fill="#fff6f0" opacity="0.82"/>
  <circle cx="120" cy="152" r="58" fill="#f5b6a8" opacity="0.22"/>
  <circle cx="760" cy="128" r="70" fill="#f5b6a8" opacity="0.16"/>
  <rect x="126" y="300" width="36" height="130" rx="8" fill="#2e1b1b"/>
  <circle cx="145" cy="265" r="52" fill="#5b8c52"/>
  <rect x="740" y="320" width="30" height="110" rx="8" fill="#2e1b1b"/>
  <circle cx="755" cy="292" r="46" fill="#648f5b"/>
  <path d="M120 520c70-34 136-34 206 0 88-44 160-44 246 0 90-40 162-40 232 0h96v100H0v-78h120Z" fill="#233422"/>
</svg>